<?xml version="1.0" encoding="UTF-8"?> <svg xmlns="http://www.w3.org/2000/svg" xmlns:xlink="http://www.w3.org/1999/xlink" width="1920" height="337" viewBox="0 0 1920 337"><defs><rect id="newsletter-bg@1x-a" width="1920" height="337" x="0" y="0"></rect><path id="newsletter-bg@1x-c" d="M-9.25107234e-13,165.09404 C-9.25107234e-13,255.030096 72.6776176,379.432454 162.085584,382.80443 L162.085584,382.80443 L154.441502,395.197568 L175.555994,395.197568 L167.06563,382.814451 C256.636343,379.745602 330,255.142829 330,165.09404 L330,165.09404 C330,73.9154132 256.128073,-7.12015724e-14 165,-7.12015724e-14 L165,-7.12015724e-14 C73.874431,-7.12015724e-14 -9.25107234e-13,73.9154132 -9.25107234e-13,165.09404"></path><path id="newsletter-bg@1x-e" d="M-9.25107234e-13,165.09404 C-9.25107234e-13,255.030096 72.6776176,379.432454 162.085584,382.80443 L162.085584,382.80443 L154.441502,395.197568 L175.555994,395.197568 L167.06563,382.814451 C256.636343,379.745602 330,255.142829 330,165.09404 L330,165.09404 C330,73.9154132 256.128073,-7.12015724e-14 165,-7.12015724e-14 L165,-7.12015724e-14 C73.874431,-7.12015724e-14 -9.25107234e-13,73.9154132 -9.25107234e-13,165.09404"></path></defs><g fill="none" fill-rule="evenodd"><rect width="1920" height="303" y="7" fill="#4A0074" fill-rule="nonzero"></rect><mask id="newsletter-bg@1x-b" fill="#fff"><use xlink:href="#newsletter-bg@1x-a"></use></mask><g mask="url(#newsletter-bg@1x-b)" opacity=".3"><g transform="translate(217 226)"><mask id="newsletter-bg@1x-d" fill="#fff"><use xlink:href="#newsletter-bg@1x-c"></use></mask><line x1="-286.006" x2="311.637" y1="384.851" y2="-213.124" stroke="#FEFEFE" stroke-width=".5" mask="url(#newsletter-bg@1x-d)"></line><line x1="-281.282" x2="316.361" y1="388.318" y2="-209.656" stroke="#FEFEFE" stroke-width=".5" mask="url(#newsletter-bg@1x-d)"></line><line x1="-276.558" x2="321.085" y1="391.786" y2="-206.189" stroke="#FEFEFE" stroke-width=".5" mask="url(#newsletter-bg@1x-d)"></line><line x1="-271.834" x2="325.809" y1="395.253" y2="-202.721" stroke="#FEFEFE" stroke-width=".5" mask="url(#newsletter-bg@1x-d)"></line><line x1="-267.109" x2="330.534" y1="398.721" y2="-199.253" stroke="#FEFEFE" stroke-width=".5" mask="url(#newsletter-bg@1x-d)"></line><line x1="-262.385" x2="335.258" y1="402.189" y2="-195.786" stroke="#FEFEFE" stroke-width=".5" mask="url(#newsletter-bg@1x-d)"></line><line x1="-257.661" x2="339.982" y1="405.656" y2="-192.318" stroke="#FEFEFE" stroke-width=".5" mask="url(#newsletter-bg@1x-d)"></line><line x1="-252.937" x2="344.706" y1="409.124" y2="-188.851" stroke="#FEFEFE" stroke-width=".5" mask="url(#newsletter-bg@1x-d)"></line><line x1="-248.213" x2="349.43" y1="412.591" y2="-185.383" stroke="#FEFEFE" stroke-width=".5" mask="url(#newsletter-bg@1x-d)"></line><line x1="-243.488" x2="354.155" y1="416.059" y2="-181.916" stroke="#FEFEFE" stroke-width=".5" mask="url(#newsletter-bg@1x-d)"></line><line x1="-238.764" x2="358.879" y1="419.526" y2="-178.448" stroke="#FEFEFE" stroke-width=".5" mask="url(#newsletter-bg@1x-d)"></line><line x1="-234.04" x2="363.603" y1="422.994" y2="-174.98" stroke="#FEFEFE" stroke-width=".5" mask="url(#newsletter-bg@1x-d)"></line><line x1="-229.316" x2="368.327" y1="426.461" y2="-171.513" stroke="#FEFEFE" stroke-width=".5" mask="url(#newsletter-bg@1x-d)"></line><line x1="-224.592" x2="373.051" y1="429.929" y2="-168.045" stroke="#FEFEFE" stroke-width=".5" mask="url(#newsletter-bg@1x-d)"></line><line x1="-219.867" x2="377.776" y1="433.397" y2="-164.578" stroke="#FEFEFE" stroke-width=".5" mask="url(#newsletter-bg@1x-d)"></line><line x1="-215.143" x2="382.5" y1="436.864" y2="-161.11" stroke="#FEFEFE" stroke-width=".5" mask="url(#newsletter-bg@1x-d)"></line><line x1="-210.419" x2="387.224" y1="440.332" y2="-157.643" stroke="#FEFEFE" stroke-width=".5" mask="url(#newsletter-bg@1x-d)"></line><line x1="-205.694" x2="391.949" y1="443.799" y2="-154.175" stroke="#FEFEFE" stroke-width=".5" mask="url(#newsletter-bg@1x-d)"></line><line x1="-200.97" x2="396.673" y1="447.267" y2="-150.708" stroke="#FEFEFE" stroke-width=".5" mask="url(#newsletter-bg@1x-d)"></line><line x1="-196.246" x2="401.397" y1="450.734" y2="-147.24" stroke="#FEFEFE" stroke-width=".5" mask="url(#newsletter-bg@1x-d)"></line><line x1="-191.522" x2="406.121" y1="454.202" y2="-143.773" stroke="#FEFEFE" stroke-width=".5" mask="url(#newsletter-bg@1x-d)"></line><line x1="-186.798" x2="410.845" y1="457.67" y2="-140.305" stroke="#FEFEFE" stroke-width=".5" mask="url(#newsletter-bg@1x-d)"></line><line x1="-182.073" x2="415.57" y1="461.137" y2="-136.838" stroke="#FEFEFE" stroke-width=".5" mask="url(#newsletter-bg@1x-d)"></line><line x1="-177.349" x2="420.294" y1="464.605" y2="-133.37" stroke="#FEFEFE" stroke-width=".5" mask="url(#newsletter-bg@1x-d)"></line><line x1="-172.625" x2="425.018" y1="468.072" y2="-129.902" stroke="#FEFEFE" stroke-width=".5" mask="url(#newsletter-bg@1x-d)"></line><line x1="-167.901" x2="429.742" y1="471.54" y2="-126.435" stroke="#FEFEFE" stroke-width=".5" mask="url(#newsletter-bg@1x-d)"></line><line x1="-163.176" x2="434.467" y1="475.007" y2="-122.967" stroke="#FEFEFE" stroke-width=".5" mask="url(#newsletter-bg@1x-d)"></line><line x1="-158.452" x2="439.191" y1="478.475" y2="-119.5" stroke="#FEFEFE" stroke-width=".5" mask="url(#newsletter-bg@1x-d)"></line><line x1="-153.728" x2="443.915" y1="481.943" y2="-116.032" stroke="#FEFEFE" stroke-width=".5" mask="url(#newsletter-bg@1x-d)"></line><line x1="-149.004" x2="448.639" y1="485.41" y2="-112.565" stroke="#FEFEFE" stroke-width=".5" mask="url(#newsletter-bg@1x-d)"></line><line x1="-144.28" x2="453.363" y1="488.878" y2="-109.097" stroke="#FEFEFE" stroke-width=".5" mask="url(#newsletter-bg@1x-d)"></line><line x1="-139.555" x2="458.088" y1="492.345" y2="-105.63" stroke="#FEFEFE" stroke-width=".5" mask="url(#newsletter-bg@1x-d)"></line><line x1="-134.831" x2="462.812" y1="495.813" y2="-102.162" stroke="#FEFEFE" stroke-width=".5" mask="url(#newsletter-bg@1x-d)"></line><line x1="-130.107" x2="467.536" y1="499.28" y2="-98.694" stroke="#FEFEFE" stroke-width=".5" mask="url(#newsletter-bg@1x-d)"></line><line x1="-125.383" x2="472.26" y1="502.748" y2="-95.227" stroke="#FEFEFE" stroke-width=".5" mask="url(#newsletter-bg@1x-d)"></line><line x1="-120.658" x2="476.985" y1="506.215" y2="-91.759" stroke="#FEFEFE" stroke-width=".5" mask="url(#newsletter-bg@1x-d)"></line><line x1="-115.934" x2="481.709" y1="509.683" y2="-88.292" stroke="#FEFEFE" stroke-width=".5" mask="url(#newsletter-bg@1x-d)"></line><line x1="-111.21" x2="486.433" y1="513.15" y2="-84.824" stroke="#FEFEFE" stroke-width=".5" mask="url(#newsletter-bg@1x-d)"></line><line x1="-106.486" x2="491.157" y1="516.618" y2="-81.357" stroke="#FEFEFE" stroke-width=".5" mask="url(#newsletter-bg@1x-d)"></line><line x1="-101.761" x2="495.882" y1="520.086" y2="-77.889" stroke="#FEFEFE" stroke-width=".5" mask="url(#newsletter-bg@1x-d)"></line><line x1="-97.037" x2="500.606" y1="523.553" y2="-74.421" stroke="#FEFEFE" stroke-width=".5" mask="url(#newsletter-bg@1x-d)"></line><line x1="-92.313" x2="505.33" y1="527.021" y2="-70.954" stroke="#FEFEFE" stroke-width=".5" mask="url(#newsletter-bg@1x-d)"></line><line x1="-87.589" x2="510.054" y1="530.488" y2="-67.486" stroke="#FEFEFE" stroke-width=".5" mask="url(#newsletter-bg@1x-d)"></line><line x1="-82.865" x2="514.778" y1="533.956" y2="-64.019" stroke="#FEFEFE" stroke-width=".5" mask="url(#newsletter-bg@1x-d)"></line><line x1="-78.14" x2="519.503" y1="537.423" y2="-60.551" stroke="#FEFEFE" stroke-width=".5" mask="url(#newsletter-bg@1x-d)"></line><line x1="-73.416" x2="524.227" y1="540.891" y2="-57.084" stroke="#FEFEFE" stroke-width=".5" mask="url(#newsletter-bg@1x-d)"></line><line x1="-68.692" x2="528.951" y1="544.358" y2="-53.616" stroke="#FEFEFE" stroke-width=".5" mask="url(#newsletter-bg@1x-d)"></line><line x1="-63.968" x2="533.675" y1="547.826" y2="-50.148" stroke="#FEFEFE" stroke-width=".5" mask="url(#newsletter-bg@1x-d)"></line><line x1="-59.244" x2="538.4" y1="551.293" y2="-46.681" stroke="#FEFEFE" stroke-width=".5" mask="url(#newsletter-bg@1x-d)"></line><line x1="-54.519" x2="543.124" y1="554.761" y2="-43.213" stroke="#FEFEFE" stroke-width=".5" mask="url(#newsletter-bg@1x-d)"></line><line x1="-49.795" x2="547.848" y1="558.229" y2="-39.746" stroke="#FEFEFE" stroke-width=".5" mask="url(#newsletter-bg@1x-d)"></line><line x1="-45.071" x2="552.572" y1="561.696" y2="-36.278" stroke="#FEFEFE" stroke-width=".5" mask="url(#newsletter-bg@1x-d)"></line><line x1="-40.347" x2="557.296" y1="565.164" y2="-32.811" stroke="#FEFEFE" stroke-width=".5" mask="url(#newsletter-bg@1x-d)"></line><line x1="-35.622" x2="562.021" y1="568.631" y2="-29.343" stroke="#FEFEFE" stroke-width=".5" mask="url(#newsletter-bg@1x-d)"></line><line x1="-30.898" x2="566.745" y1="572.099" y2="-25.876" stroke="#FEFEFE" stroke-width=".5" mask="url(#newsletter-bg@1x-d)"></line><line x1="-26.174" x2="571.469" y1="575.566" y2="-22.408" stroke="#FEFEFE" stroke-width=".5" mask="url(#newsletter-bg@1x-d)"></line><line x1="-21.45" x2="576.193" y1="579.034" y2="-18.94" stroke="#FEFEFE" stroke-width=".5" mask="url(#newsletter-bg@1x-d)"></line><line x1="-16.725" x2="580.918" y1="582.502" y2="-15.473" stroke="#FEFEFE" stroke-width=".5" mask="url(#newsletter-bg@1x-d)"></line><line x1="-12.001" x2="585.642" y1="585.969" y2="-12.005" stroke="#FEFEFE" stroke-width=".5" mask="url(#newsletter-bg@1x-d)"></line><line x1="-7.277" x2="590.366" y1="589.437" y2="-8.538" stroke="#FEFEFE" stroke-width=".5" mask="url(#newsletter-bg@1x-d)"></line><line x1="-2.553" x2="595.09" y1="592.904" y2="-5.07" stroke="#FEFEFE" stroke-width=".5" mask="url(#newsletter-bg@1x-d)"></line><line x1="2.172" x2="599.815" y1="596.372" y2="-1.603" stroke="#FEFEFE" stroke-width=".5" mask="url(#newsletter-bg@1x-d)"></line></g></g><circle cx="482" cy="121" r="93.5" stroke="#F12E49" mask="url(#newsletter-bg@1x-b)"></circle><circle cx="539" cy="46" r="19" fill="#88579E" mask="url(#newsletter-bg@1x-b)" opacity=".5"></circle><circle cx="1818.5" cy="124.5" r="30.5" fill="#88579E" mask="url(#newsletter-bg@1x-b)" opacity=".2"></circle><circle cx="378.5" cy="12.5" r="11" stroke="#00BDD3" stroke-width="3" mask="url(#newsletter-bg@1x-b)"></circle><circle cx="1874.5" cy="181.5" r="11" stroke="#00BDD3" stroke-width="3" mask="url(#newsletter-bg@1x-b)"></circle><circle cx="353.5" cy="231.5" r="9.5" fill="#FF9800" fill-rule="nonzero" mask="url(#newsletter-bg@1x-b)"></circle><g mask="url(#newsletter-bg@1x-b)" opacity=".4"><g transform="translate(1330 -100)"><mask id="newsletter-bg@1x-f" fill="#fff"><use xlink:href="#newsletter-bg@1x-e"></use></mask><line x1="-286.006" x2="311.637" y1="384.851" y2="-213.124" stroke="#FEFEFE" stroke-width=".5" mask="url(#newsletter-bg@1x-f)"></line><line x1="-281.282" x2="316.361" y1="388.318" y2="-209.656" stroke="#FEFEFE" stroke-width=".5" mask="url(#newsletter-bg@1x-f)"></line><line x1="-276.558" x2="321.085" y1="391.786" y2="-206.189" stroke="#FEFEFE" stroke-width=".5" mask="url(#newsletter-bg@1x-f)"></line><line x1="-271.834" x2="325.809" y1="395.253" y2="-202.721" stroke="#FEFEFE" stroke-width=".5" mask="url(#newsletter-bg@1x-f)"></line><line x1="-267.109" x2="330.534" y1="398.721" y2="-199.253" stroke="#FEFEFE" stroke-width=".5" mask="url(#newsletter-bg@1x-f)"></line><line x1="-262.385" x2="335.258" y1="402.189" y2="-195.786" stroke="#FEFEFE" stroke-width=".5" mask="url(#newsletter-bg@1x-f)"></line><line x1="-257.661" x2="339.982" y1="405.656" y2="-192.318" stroke="#FEFEFE" stroke-width=".5" mask="url(#newsletter-bg@1x-f)"></line><line x1="-252.937" x2="344.706" y1="409.124" y2="-188.851" stroke="#FEFEFE" stroke-width=".5" mask="url(#newsletter-bg@1x-f)"></line><line x1="-248.213" x2="349.43" y1="412.591" y2="-185.383" stroke="#FEFEFE" stroke-width=".5" mask="url(#newsletter-bg@1x-f)"></line><line x1="-243.488" x2="354.155" y1="416.059" y2="-181.916" stroke="#FEFEFE" stroke-width=".5" mask="url(#newsletter-bg@1x-f)"></line><line x1="-238.764" x2="358.879" y1="419.526" y2="-178.448" stroke="#FEFEFE" stroke-width=".5" mask="url(#newsletter-bg@1x-f)"></line><line x1="-234.04" x2="363.603" y1="422.994" y2="-174.98" stroke="#FEFEFE" stroke-width=".5" mask="url(#newsletter-bg@1x-f)"></line><line x1="-229.316" x2="368.327" y1="426.461" y2="-171.513" stroke="#FEFEFE" stroke-width=".5" mask="url(#newsletter-bg@1x-f)"></line><line x1="-224.592" x2="373.051" y1="429.929" y2="-168.045" stroke="#FEFEFE" stroke-width=".5" mask="url(#newsletter-bg@1x-f)"></line><line x1="-219.867" x2="377.776" y1="433.397" y2="-164.578" stroke="#FEFEFE" stroke-width=".5" mask="url(#newsletter-bg@1x-f)"></line><line x1="-215.143" x2="382.5" y1="436.864" y2="-161.11" stroke="#FEFEFE" stroke-width=".5" mask="url(#newsletter-bg@1x-f)"></line><line x1="-210.419" x2="387.224" y1="440.332" y2="-157.643" stroke="#FEFEFE" stroke-width=".5" mask="url(#newsletter-bg@1x-f)"></line><line x1="-205.694" x2="391.949" y1="443.799" y2="-154.175" stroke="#FEFEFE" stroke-width=".5" mask="url(#newsletter-bg@1x-f)"></line><line x1="-200.97" x2="396.673" y1="447.267" y2="-150.708" stroke="#FEFEFE" stroke-width=".5" mask="url(#newsletter-bg@1x-f)"></line><line x1="-196.246" x2="401.397" y1="450.734" y2="-147.24" stroke="#FEFEFE" stroke-width=".5" mask="url(#newsletter-bg@1x-f)"></line><line x1="-191.522" x2="406.121" y1="454.202" y2="-143.773" stroke="#FEFEFE" stroke-width=".5" mask="url(#newsletter-bg@1x-f)"></line><line x1="-186.798" x2="410.845" y1="457.67" y2="-140.305" stroke="#FEFEFE" stroke-width=".5" mask="url(#newsletter-bg@1x-f)"></line><line x1="-182.073" x2="415.57" y1="461.137" y2="-136.838" stroke="#FEFEFE" stroke-width=".5" mask="url(#newsletter-bg@1x-f)"></line><line x1="-177.349" x2="420.294" y1="464.605" y2="-133.37" stroke="#FEFEFE" stroke-width=".5" mask="url(#newsletter-bg@1x-f)"></line><line x1="-172.625" x2="425.018" y1="468.072" y2="-129.902" stroke="#FEFEFE" stroke-width=".5" mask="url(#newsletter-bg@1x-f)"></line><line x1="-167.901" x2="429.742" y1="471.54" y2="-126.435" stroke="#FEFEFE" stroke-width=".5" mask="url(#newsletter-bg@1x-f)"></line><line x1="-163.176" x2="434.467" y1="475.007" y2="-122.967" stroke="#FEFEFE" stroke-width=".5" mask="url(#newsletter-bg@1x-f)"></line><line x1="-158.452" x2="439.191" y1="478.475" y2="-119.5" stroke="#FEFEFE" stroke-width=".5" mask="url(#newsletter-bg@1x-f)"></line><line x1="-153.728" x2="443.915" y1="481.943" y2="-116.032" stroke="#FEFEFE" stroke-width=".5" mask="url(#newsletter-bg@1x-f)"></line><line x1="-149.004" x2="448.639" y1="485.41" y2="-112.565" stroke="#FEFEFE" stroke-width=".5" mask="url(#newsletter-bg@1x-f)"></line><line x1="-144.28" x2="453.363" y1="488.878" y2="-109.097" stroke="#FEFEFE" stroke-width=".5" mask="url(#newsletter-bg@1x-f)"></line><line x1="-139.555" x2="458.088" y1="492.345" y2="-105.63" stroke="#FEFEFE" stroke-width=".5" mask="url(#newsletter-bg@1x-f)"></line><line x1="-134.831" x2="462.812" y1="495.813" y2="-102.162" stroke="#FEFEFE" stroke-width=".5" mask="url(#newsletter-bg@1x-f)"></line><line x1="-130.107" x2="467.536" y1="499.28" y2="-98.694" stroke="#FEFEFE" stroke-width=".5" mask="url(#newsletter-bg@1x-f)"></line><line x1="-125.383" x2="472.26" y1="502.748" y2="-95.227" stroke="#FEFEFE" stroke-width=".5" mask="url(#newsletter-bg@1x-f)"></line><line x1="-120.658" x2="476.985" y1="506.215" y2="-91.759" stroke="#FEFEFE" stroke-width=".5" mask="url(#newsletter-bg@1x-f)"></line><line x1="-115.934" x2="481.709" y1="509.683" y2="-88.292" stroke="#FEFEFE" stroke-width=".5" mask="url(#newsletter-bg@1x-f)"></line><line x1="-111.21" x2="486.433" y1="513.15" y2="-84.824" stroke="#FEFEFE" stroke-width=".5" mask="url(#newsletter-bg@1x-f)"></line><line x1="-106.486" x2="491.157" y1="516.618" y2="-81.357" stroke="#FEFEFE" stroke-width=".5" mask="url(#newsletter-bg@1x-f)"></line><line x1="-101.761" x2="495.882" y1="520.086" y2="-77.889" stroke="#FEFEFE" stroke-width=".5" mask="url(#newsletter-bg@1x-f)"></line><line x1="-97.037" x2="500.606" y1="523.553" y2="-74.421" stroke="#FEFEFE" stroke-width=".5" mask="url(#newsletter-bg@1x-f)"></line><line x1="-92.313" x2="505.33" y1="527.021" y2="-70.954" stroke="#FEFEFE" stroke-width=".5" mask="url(#newsletter-bg@1x-f)"></line><line x1="-87.589" x2="510.054" y1="530.488" y2="-67.486" stroke="#FEFEFE" stroke-width=".5" mask="url(#newsletter-bg@1x-f)"></line><line x1="-82.865" x2="514.778" y1="533.956" y2="-64.019" stroke="#FEFEFE" stroke-width=".5" mask="url(#newsletter-bg@1x-f)"></line><line x1="-78.14" x2="519.503" y1="537.423" y2="-60.551" stroke="#FEFEFE" stroke-width=".5" mask="url(#newsletter-bg@1x-f)"></line><line x1="-73.416" x2="524.227" y1="540.891" y2="-57.084" stroke="#FEFEFE" stroke-width=".5" mask="url(#newsletter-bg@1x-f)"></line><line x1="-68.692" x2="528.951" y1="544.358" y2="-53.616" stroke="#FEFEFE" stroke-width=".5" mask="url(#newsletter-bg@1x-f)"></line><line x1="-63.968" x2="533.675" y1="547.826" y2="-50.148" stroke="#FEFEFE" stroke-width=".5" mask="url(#newsletter-bg@1x-f)"></line><line x1="-59.244" x2="538.4" y1="551.293" y2="-46.681" stroke="#FEFEFE" stroke-width=".5" mask="url(#newsletter-bg@1x-f)"></line><line x1="-54.519" x2="543.124" y1="554.761" y2="-43.213" stroke="#FEFEFE" stroke-width=".5" mask="url(#newsletter-bg@1x-f)"></line><line x1="-49.795" x2="547.848" y1="558.229" y2="-39.746" stroke="#FEFEFE" stroke-width=".5" mask="url(#newsletter-bg@1x-f)"></line><line x1="-45.071" x2="552.572" y1="561.696" y2="-36.278" stroke="#FEFEFE" stroke-width=".5" mask="url(#newsletter-bg@1x-f)"></line><line x1="-40.347" x2="557.296" y1="565.164" y2="-32.811" stroke="#FEFEFE" stroke-width=".5" mask="url(#newsletter-bg@1x-f)"></line><line x1="-35.622" x2="562.021" y1="568.631" y2="-29.343" stroke="#FEFEFE" stroke-width=".5" mask="url(#newsletter-bg@1x-f)"></line><line x1="-30.898" x2="566.745" y1="572.099" y2="-25.876" stroke="#FEFEFE" stroke-width=".5" mask="url(#newsletter-bg@1x-f)"></line><line x1="-26.174" x2="571.469" y1="575.566" y2="-22.408" stroke="#FEFEFE" stroke-width=".5" mask="url(#newsletter-bg@1x-f)"></line><line x1="-21.45" x2="576.193" y1="579.034" y2="-18.94" stroke="#FEFEFE" stroke-width=".5" mask="url(#newsletter-bg@1x-f)"></line><line x1="-16.725" x2="580.918" y1="582.502" y2="-15.473" stroke="#FEFEFE" stroke-width=".5" mask="url(#newsletter-bg@1x-f)"></line><line x1="-12.001" x2="585.642" y1="585.969" y2="-12.005" stroke="#FEFEFE" stroke-width=".5" mask="url(#newsletter-bg@1x-f)"></line><line x1="-7.277" x2="590.366" y1="589.437" y2="-8.538" stroke="#FEFEFE" stroke-width=".5" mask="url(#newsletter-bg@1x-f)"></line><line x1="-2.553" x2="595.09" y1="592.904" y2="-5.07" stroke="#FEFEFE" stroke-width=".5" mask="url(#newsletter-bg@1x-f)"></line><line x1="2.172" x2="599.815" y1="596.372" y2="-1.603" stroke="#FEFEFE" stroke-width=".5" mask="url(#newsletter-bg@1x-f)"></line></g></g><circle cx="1450" cy="163" r="31" fill="#4A0074" fill-rule="nonzero" mask="url(#newsletter-bg@1x-b)"></circle><circle cx="1560.5" cy="260.5" r="12.5" fill="#9ED35A" fill-rule="nonzero" mask="url(#newsletter-bg@1x-b)"></circle><circle cx="1404" cy="305" r="27.5" stroke="#F12E49" stroke-width="9" mask="url(#newsletter-bg@1x-b)"></circle><circle cx="1411.5" cy="8.5" r="6" stroke="#FF9800" stroke-width="3" mask="url(#newsletter-bg@1x-b)"></circle><circle cx="58.5" cy="128.5" r="6.5" stroke="#F12E49" stroke-width="2" mask="url(#newsletter-bg@1x-b)"></circle></g></svg> 