<svg xmlns="http://www.w3.org/2000/svg" xmlns:xlink="http://www.w3.org/1999/xlink" viewBox="0 0 600 600" preserveAspectRatio="xMidYMid meet" style="transform: translate3d(0px, 0px, 0px); content-visibility: visible;"><defs><clipPath id="__lottie_element_2"><rect width="600" height="600" x="0" y="0"/></clipPath></defs><g clip-path="url(#__lottie_element_2)"><g transform="matrix(1,0,0,1,0,0)" opacity="1" style="display: block;"><g opacity="1" transform="matrix(1,0,0,1,309.92498779296875,405.1960144042969)"><path fill="rgb(151,255,147)" fill-opacity="1" d=" M202.88299560546875,4.672999858856201 C202.88299560546875,134.80499267578125 115.68399810791016,134.80499267578125 0,134.80499267578125 C-115.7040023803711,134.80499267578125 -202.88299560546875,134.80499267578125 -202.88299560546875,4.672999858856201 C-202.88299560546875,-65.22899627685547 -189.78700256347656,-123.28600311279297 -54.20399856567383,-134.5570068359375 C-53.18000030517578,-134.63900756835938 -52.1349983215332,-134.7220001220703 -51.09000015258789,-134.8040008544922 C-51.09000015258789,-134.8040008544922 0,-49.63399887084961 0,-49.63399887084961 C0,-49.63399887084961 50.904998779296875,-134.47500610351562 50.904998779296875,-134.47500610351562 C52.03200149536133,-134.39300537109375 53.159000396728516,-134.29100036621094 54.26599884033203,-134.18899536132812 C187.63600158691406,-122.05699920654297 202.88299560546875,-64.51200103759766 202.88299560546875,4.672999858856201z"/></g></g><g transform="matrix(0.9985130429267883,0.054513391107320786,-0.054513391107320786,0.9985130429267883,16.22027587890625,-15.650970458984375)" opacity="1" style="display: block;"><g opacity="1" transform="matrix(1,0,0,1,309.02301025390625,175.41600036621094)"><path fill="rgb(255,220,126)" fill-opacity="1" d=" M81.07099914550781,0.009999999776482582 C81.07099914550781,37.082000732421875 63.56999969482422,70.03500366210938 43.09700012207031,91.06099700927734 C40.67900085449219,93.56099700927734 38.220001220703125,95.87699890136719 35.7400016784668,98.00900268554688 C24.05900001525879,108.09100341796875 11.968000411987305,114.15699768066406 1.9670000076293945,114.8949966430664 C1.9670000076293945,114.8949966430664 1.9470000267028809,114.8949966430664 1.9470000267028809,114.8949966430664 C1.2920000553131104,114.93599700927734 0.6349999904632568,114.95600128173828 0.0010000000474974513,114.95600128173828 C-9.939000129699707,114.95600128173828 -22.850000381469727,108.66500091552734 -35.43199920654297,97.74199676513672 C-37.952999114990234,95.56999969482422 -40.4739990234375,93.19300079345703 -42.93299865722656,90.6510009765625 C-63.3650016784668,69.6050033569336 -81.07099914550781,36.816001892089844 -81.07099914550781,0.009999999776482582 C-81.07099914550781,-63.47800064086914 -81.07099914550781,-114.95600128173828 0.0010000000474974513,-114.95600128173828 C81.07099914550781,-114.95600128173828 81.07099914550781,-63.47800064086914 81.07099914550781,0.009999999776482582z"/></g><g opacity="1" transform="matrix(1,0,0,1,291.4809875488281,175.41600036621094)"><path stroke-linecap="butt" stroke-linejoin="miter" fill-opacity="0" stroke-miterlimit="10" stroke="rgb(0,0,0)" stroke-opacity="1" stroke-width="14.345" d=" M81.07099914550781,0.009999999776482582 C81.07099914550781,37.082000732421875 63.56999969482422,70.03500366210938 43.09700012207031,91.06099700927734 C40.67900085449219,93.56099700927734 38.21900177001953,95.87699890136719 35.7400016784668,98.00900268554688 C24.05900001525879,108.09100341796875 11.968000411987305,114.15699768066406 1.9670000076293945,114.8949966430664 C1.9670000076293945,114.8949966430664 1.9470000267028809,114.8949966430664 1.9470000267028809,114.8949966430664 C1.2910000085830688,114.93599700927734 0.6349999904632568,114.95600128173828 0,114.95600128173828 C-9.939000129699707,114.95600128173828 -22.850000381469727,108.66500091552734 -35.43199920654297,97.74199676513672 C-37.952999114990234,95.56999969482422 -40.4739990234375,93.19300079345703 -42.93299865722656,90.6510009765625 C-63.3650016784668,69.6050033569336 -81.07099914550781,36.816001892089844 -81.07099914550781,0.009999999776482582 C-81.07099914550781,-63.47800064086914 -81.07099914550781,-114.95600128173828 0,-114.95600128173828 C81.07099914550781,-114.95600128173828 81.07099914550781,-63.47800064086914 81.07099914550781,0.009999999776482582z"/></g></g><g transform="matrix(1,0,0,1,0,0)" opacity="1" style="display: block;"><g opacity="1" transform="matrix(1,0,0,1,291.4809875488281,405.1960144042969)"><path stroke-linecap="butt" stroke-linejoin="round" fill-opacity="0" stroke="rgb(0,0,0)" stroke-opacity="1" stroke-width="14.345" d=" M202.88299560546875,4.672999858856201 C202.88299560546875,134.80499267578125 115.68399810791016,134.80499267578125 0,134.80499267578125 C-115.70500183105469,134.80499267578125 -202.88299560546875,134.80499267578125 -202.88299560546875,4.672999858856201 C-202.88299560546875,-65.22899627685547 -189.78700256347656,-123.28600311279297 -54.20399856567383,-134.5570068359375 C-53.17900085449219,-134.63900756835938 -47.44659423828125,-138.04225158691406 -46.40159606933594,-138.12425231933594 C-46.40159606933594,-138.12425231933594 0,-49.63399887084961 0,-49.63399887084961 C0,-49.63399887084961 50.904998779296875,-134.47500610351562 50.904998779296875,-134.47500610351562 C52.03200149536133,-134.39300537109375 53.15999984741211,-134.29100036621094 54.266998291015625,-134.18899536132812 C187.63600158691406,-122.05699920654297 202.88299560546875,-64.51200103759766 202.88299560546875,4.672999858856201z"/></g><g opacity="1" transform="matrix(1,0,0,1,291.4809875488281,457.00201416015625)"><path stroke-linecap="round" stroke-linejoin="miter" fill-opacity="0" stroke-miterlimit="10" stroke="rgb(0,0,0)" stroke-opacity="1" stroke-width="14.345" d=" M147.55099487304688,-82.99700164794922 C147.55099487304688,-82.99700164794922 184.43899536132812,82.99700164794922 0,82.99700164794922 C-184.43899536132812,82.99700164794922 -147.552001953125,-82.99700164794922 -147.552001953125,-82.99700164794922"/></g></g></g></svg>